<?xml version="1.0" encoding="UTF-8"?>
<!-- Generator: Adobe Illustrator 27.3.1, SVG Export Plug-In . SVG Version: 6.00 Build 0)  -->
<svg xmlns="http://www.w3.org/2000/svg" xmlns:xlink="http://www.w3.org/1999/xlink" version="1.1" id="Layer_1" x="0px" y="0px" viewBox="0 0 224 224" style="enable-background:new 0 0 224 224;" xml:space="preserve">
<style type="text/css">
	.st0{fill:#FFFFFF;}
	.st1{fill:url(#SVGID_1_);}
	.st2{fill:url(#SVGID_00000128453295111917288090000009035612190367883668_);}
	.st3{fill:url(#SVGID_00000085970708053586520060000002643963264749620376_);}
	.st4{fill:url(#SVGID_00000056403248442249845280000002542753686999008924_);}
	.st5{fill:url(#SVGID_00000175286130495958048570000012837993741026017200_);}
	.st6{fill:url(#SVGID_00000155855672145010703140000009607741369453294510_);}
	.st7{fill:url(#SVGID_00000017490230650322796940000013615937887754010266_);}
	.st8{fill:url(#SVGID_00000005237439914523848800000012489502874281867653_);}
	.st9{fill:url(#SVGID_00000091694992360989025130000018251676092576927910_);}
	.st10{fill:url(#SVGID_00000158710680283232763130000005253634306550761901_);}
	.st11{fill:url(#SVGID_00000097480340199753494580000002198520718640081041_);}
	.st12{fill:url(#SVGID_00000108268455066975658020000012420292327948310922_);}
	.st13{fill:url(#SVGID_00000129165559063997187830000013819962046874195109_);}
	.st14{fill:url(#SVGID_00000100377790763219810280000004337783713308707978_);}
	.st15{fill:url(#SVGID_00000155127140205301231090000014323425482625067188_);}
	.st16{fill:url(#SVGID_00000172419846483746567210000013027061651382228104_);}
	.st17{fill:url(#SVGID_00000183940952692515388890000010195274190939946153_);}
	.st18{fill:url(#SVGID_00000166662946552942225820000003935312871254527411_);}
	.st19{fill:url(#SVGID_00000056399530186825835390000009163618622126514567_);}
	.st20{fill:url(#SVGID_00000062873143419931238360000003407183754795659664_);}
	.st21{fill:url(#SVGID_00000135650829573221852750000017600687694180996001_);}
	.st22{fill:url(#SVGID_00000177472032919433320760000016868960220067350691_);}
</style>
<path class="st0" d="M204.16,224H19.84C8.88,224,0,215.12,0,204.16V19.84C0,8.88,8.88,0,19.84,0h184.31C215.12,0,224,8.88,224,19.84  v184.31C224,215.12,215.12,224,204.16,224z"></path>
<g>
	<linearGradient id="SVGID_1_" gradientUnits="userSpaceOnUse" x1="112" y1="175.33" x2="112" y2="48.67">
		<stop offset="0" style="stop-color:#1E3063"></stop>
		<stop offset="0.3565" style="stop-color:#1E447E"></stop>
		<stop offset="1" style="stop-color:#1D70B7"></stop>
	</linearGradient>
	<path class="st1" d="M193.4,120.91c-0.81-2.94-2.65-5.32-5.08-6.96c1.36-2.56,1.69-5.59,0.66-8.4c-1.08-2.91-3.41-5.22-6.3-6.26   c-0.44-4.18-4.02-7.58-8.36-7.71c-3.98-0.12-7.78,2.87-8.61,6.73c-0.13,0.04-0.25,0.08-0.38,0.13c0-3.42,0-6.83,0-10.25   c0-1.29-1.09-2.39-2.39-2.39c-8.83,0-17.66,0-26.49,0c0-10.12,0-20.25,0-30.37c0-1.46,0-2.92,0-4.38c0-1.29-1.09-2.39-2.39-2.39   c-5.72,0-11.43,0-17.15,0c-9.11,0-18.21,0-27.32,0c-2.09,0-4.17,0-6.26,0c-1.29,0-2.39,1.09-2.39,2.39c0,8.4,0,16.8,0,25.21   c0,13.34,0,26.67,0,40.01c0,2.41,0,4.82,0,7.22c-5.89,0.05-11.78,0.09-17.67,0.14c-1.9,0.01-3.79,0.03-5.69,0.04   c-0.45,0-0.91-0.01-1.37,0.01c-1.17,0.05-2.04,0.67-2.95,1.37c-1.79,1.39-3.21,3.15-4.53,4.98c-1.17,1.61-2.17,3.42-3.54,4.86   c-2.58,2.71-6.56,1.84-9.87,2.6c-3.35,0.76-4.05,3.8-4.44,6.74c-0.38,2.88-0.6,5.79-0.68,8.7c-0.07,2.79-0.18,5.93,0.68,8.62   c0.36,1.13,0.94,2.26,2.01,2.87c1.54,0.87,3.5,1.28,5.18,1.82c0.55,0.17,1.09,0.34,1.64,0.51c0.2,1.21,0.62,2.41,1.28,3.51   c2.28,3.82,6.7,5.67,11.03,4.89c4.03-0.73,7.08-3.97,8.04-7.82c4.66,0,9.32,0,13.99,0c8.52,0,17.05,0,25.57,0c1.25,0,2.5,0,3.75,0   c0.23,1.01,0.62,2,1.17,2.93c2.28,3.82,6.7,5.67,11.03,4.89c3.65-0.66,6.49-3.37,7.71-6.73c2.17-0.82,4.32-1.76,6.34-2.88   c1.45-0.81,2.95-1.75,3.99-3.06c1.23-1.53,1.89-3.42,2.19-5.35c0.38-2.43,0.41-5.48-0.43-8.08c4.57,0,9.13,0,13.7,0   c3.37,0,6.75,0,10.12,0c1.25,0,2.49,0,3.74,0c5.03,0,10.06,0,15.09,0c2.21,0,4.43,0,6.64,0c3.07,0,3.08-4.77,0-4.77   c-3.26,0-6.52,0-9.78,0c0.18-0.32,0.29-0.7,0.29-1.16c0-2.73,0-5.45,0-8.18c1.73,1.01,3.71,1.62,5.8,1.7   c3.8,0.15,7.64-1.58,10.02-4.54C193.51,128.99,194.47,124.82,193.4,120.91z M85.72,100.27c0-13.34,0-26.67,0-40.01   c0-2.27,0-4.54,0-6.81c4.92,0,9.84,0,14.76,0c9.11,0,18.21,0,27.32,0c1.29,0,2.58,0,3.87,0c0,9.52,0,19.05,0,28.57   c0,1.26,0,2.53,0,3.79c-0.73,0-1.45,0-2.18,0c-0.84,0-1.68,0-2.51,0c0-1.2,0-2.4,0-3.6c0-0.24,0-0.47,0-0.71   c0-0.61-0.27-1.25-0.7-1.69c-0.41-0.41-1.09-0.73-1.69-0.7c-1.29,0.06-2.39,1.05-2.39,2.39c0,1.66,0,3.33,0,4.99   c0,0.24,0,0.47,0,0.71c0,0.25,0.06,0.51,0.14,0.76c-0.01,0.08-0.02,0.15-0.02,0.23c0,6.37,0,12.74,0,19.11c0,10.11,0,20.22,0,30.32   c0,1.36,0,2.72,0,4.07c-2.78-0.59-5.54-1.25-8.05-2.57v-4.95h-7.03c-0.92-0.75-1.84-1.5-2.75-2.26c-2.65-2.22-5.22-4.53-7.9-6.69   c-0.03-0.02-0.06-0.05-0.09-0.07c0-1.05,0-2.09,0-3.14c0-0.2,0-0.39,0-0.59c0-0.61-0.27-1.25-0.7-1.69   c-0.41-0.41-1.09-0.73-1.69-0.7c-0.62,0.03-1.26,0.23-1.69,0.7c-0.43,0.47-0.7,1.04-0.7,1.69c0,0.67,0,1.33,0,2   c-2,0.02-4.01,0.03-6.01,0.05C85.72,115.73,85.72,108,85.72,100.27z M36.2,142.18c0.02-0.04,0-0.03-0.07,0.06c0,0,0,0,0,0   C36.32,141.99,36.27,142.09,36.2,142.18z M36.12,142.24C36.12,142.24,36.12,142.24,36.12,142.24c-0.01,0.01-0.01,0.02-0.03,0.03   C36.1,142.26,36.11,142.25,36.12,142.24z M35.6,160.56c-0.01-0.01-0.01-0.02-0.02-0.03c0,0,0-0.01,0-0.01   C35.8,160.74,35.74,160.74,35.6,160.56z M45.49,168.42C45.69,168.66,45.56,168.51,45.49,168.42L45.49,168.42z M47.74,170.16   C47.64,170.11,47.51,170.05,47.74,170.16L47.74,170.16z M55.57,165.74C55.56,165.94,55.56,165.84,55.57,165.74L55.57,165.74z    M55.58,165.62c0,0.02,0,0.03,0,0.05c-0.06,0.34-0.14,0.69-0.24,1.02c-0.06,0.18-0.12,0.36-0.19,0.54   c-0.01,0.02-0.02,0.04-0.04,0.07c-0.21,0.37-0.41,0.73-0.65,1.08c-0.01,0.02-0.02,0.03-0.03,0.04c-0.01,0.01-0.02,0.02-0.05,0.05   c-0.12,0.13-0.23,0.26-0.35,0.39c-0.08,0.08-0.51,0.46-0.56,0.52c-0.25,0.18-0.51,0.36-0.78,0.51c-0.12,0.07-0.25,0.13-0.37,0.2   c-0.08,0.04-0.13,0.06-0.15,0.07c-0.05,0.02-0.1,0.04-0.15,0.06c-0.34,0.11-0.68,0.22-1.03,0.29c-0.06,0.01-0.21,0.04-0.29,0.05   c-0.13,0.01-0.26,0.02-0.39,0.03c-0.37,0.02-0.74,0-1.12-0.03c-0.02,0-0.02,0-0.03,0c-0.03-0.01-0.05-0.01-0.09-0.02   c-0.21-0.05-0.42-0.09-0.63-0.15c-0.21-0.06-0.41-0.13-0.61-0.2c-0.01,0-0.02-0.01-0.04-0.02c-0.31-0.15-0.61-0.31-0.9-0.49   c-0.15-0.09-0.29-0.19-0.43-0.3c-0.01-0.01-0.01-0.01-0.02-0.01c-0.02-0.02-0.04-0.04-0.07-0.07c-0.3-0.29-0.59-0.57-0.87-0.89   c-0.01-0.01-0.01-0.02-0.02-0.02c-0.12-0.17-0.24-0.35-0.34-0.53c-0.06-0.11-0.32-0.63-0.36-0.68c-0.11-0.29-0.21-0.6-0.29-0.9   c-0.04-0.14-0.06-0.28-0.09-0.42c-0.01-0.06-0.02-0.11-0.02-0.14c-0.01-0.07-0.01-0.13-0.02-0.2c-0.02-0.34-0.03-0.67-0.01-1.01   c0-0.06,0.08-0.56,0.04-0.4c0.02-0.09,0.03-0.18,0.05-0.27c0.08-0.35,0.19-0.69,0.3-1.03c0.02-0.05,0.02-0.07,0.03-0.1   c0.02-0.03,0.03-0.05,0.06-0.11c0.1-0.18,0.19-0.37,0.3-0.55c0.09-0.15,0.19-0.29,0.28-0.44c0.02-0.03,0.07-0.09,0.11-0.15   c0.22-0.25,0.43-0.49,0.68-0.71c-0.01,0.01,0.15-0.13,0.24-0.21c0.1-0.07,0.27-0.2,0.26-0.19c0.35-0.23,0.71-0.43,1.09-0.61   c0.01,0,0.02-0.01,0.03-0.01c0.2-0.07,0.4-0.14,0.61-0.2c0.14-0.04,0.28-0.07,0.42-0.11c-0.01,0,0.2-0.03,0.33-0.06   c0.13-0.01,0.35-0.04,0.34-0.03c0.19-0.01,0.37-0.01,0.56-0.01c0.19,0,0.37,0.02,0.56,0.03c0.06,0,0.09,0,0.12,0   c0.03,0.01,0.06,0.02,0.12,0.03c0.42,0.1,0.83,0.21,1.24,0.35c0.03,0.01,0.04,0.01,0.06,0.02c0.01,0.01,0.03,0.02,0.06,0.03   c0.22,0.11,0.44,0.22,0.65,0.35c0.12,0.07,0.24,0.15,0.35,0.22c0.07,0.05,0.14,0.1,0.2,0.14c0.02,0.02,0.06,0.05,0.14,0.12   c0.25,0.25,0.49,0.49,0.74,0.74c0.04,0.04,0.07,0.06,0.09,0.09c0.02,0.03,0.03,0.05,0.05,0.09c0.12,0.17,0.24,0.35,0.34,0.53   c0.11,0.18,0.2,0.37,0.3,0.55c0.03,0.05,0.05,0.08,0.06,0.1c0.01,0.03,0.02,0.06,0.03,0.11c0.14,0.41,0.24,0.82,0.35,1.24   c0.01,0.02,0.01,0.06,0.02,0.1c0.03,0.27,0.04,0.54,0.04,0.81C55.6,165.17,55.59,165.39,55.58,165.62z M47.77,159.73   C47.66,159.77,47.45,159.83,47.77,159.73L47.77,159.73z M109.03,168.42C109.24,168.66,109.11,168.51,109.03,168.42L109.03,168.42z    M111.29,170.16C111.18,170.11,111.05,170.05,111.29,170.16L111.29,170.16z M119.11,165.74   C119.1,165.94,119.1,165.84,119.11,165.74L119.11,165.74z M119.12,165.62c0,0.02,0,0.03,0,0.05c-0.06,0.34-0.14,0.69-0.24,1.02   c-0.06,0.18-0.12,0.36-0.19,0.54c-0.01,0.02-0.02,0.04-0.04,0.07c-0.21,0.37-0.41,0.73-0.65,1.08c-0.01,0.02-0.02,0.03-0.03,0.04   c-0.01,0.01-0.02,0.02-0.05,0.05c-0.12,0.13-0.23,0.26-0.35,0.39c-0.08,0.08-0.51,0.46-0.56,0.52c-0.25,0.18-0.51,0.36-0.78,0.51   c-0.12,0.07-0.25,0.13-0.37,0.2c-0.08,0.04-0.13,0.06-0.15,0.07c-0.05,0.02-0.1,0.04-0.15,0.06c-0.34,0.11-0.68,0.22-1.03,0.29   c-0.06,0.01-0.21,0.04-0.29,0.05c-0.13,0.01-0.26,0.02-0.39,0.03c-0.37,0.02-0.74,0-1.12-0.03c-0.02,0-0.02,0-0.03,0   c-0.03-0.01-0.05-0.01-0.09-0.02c-0.21-0.05-0.42-0.09-0.63-0.15c-0.21-0.06-0.41-0.13-0.61-0.2c-0.01,0-0.02-0.01-0.04-0.02   c-0.31-0.15-0.61-0.31-0.9-0.49c-0.15-0.09-0.29-0.19-0.43-0.3c-0.01-0.01-0.01-0.01-0.02-0.01c-0.02-0.02-0.04-0.04-0.07-0.07   c-0.3-0.29-0.59-0.57-0.87-0.89c-0.01-0.01-0.01-0.02-0.02-0.02c-0.12-0.17-0.24-0.35-0.34-0.53c-0.06-0.11-0.32-0.63-0.36-0.68   c-0.11-0.29-0.21-0.6-0.29-0.9c-0.04-0.14-0.06-0.28-0.09-0.42c-0.01-0.06-0.02-0.11-0.02-0.14c-0.01-0.07-0.01-0.13-0.02-0.2   c-0.02-0.34-0.03-0.67-0.01-1.01c0-0.06,0.08-0.56,0.04-0.4c0.02-0.09,0.03-0.18,0.05-0.27c0.08-0.35,0.19-0.69,0.3-1.03   c0.02-0.05,0.02-0.07,0.03-0.1c0.02-0.03,0.03-0.05,0.06-0.11c0.1-0.18,0.19-0.37,0.3-0.55c0.09-0.15,0.19-0.29,0.28-0.44   c0.02-0.03,0.07-0.09,0.11-0.15c0.22-0.25,0.43-0.49,0.68-0.71c-0.01,0.01,0.15-0.13,0.24-0.21c0.1-0.07,0.27-0.2,0.26-0.19   c0.35-0.23,0.71-0.43,1.09-0.61c0.01,0,0.02-0.01,0.03-0.01c0.2-0.07,0.4-0.14,0.61-0.2c0.14-0.04,0.28-0.07,0.42-0.11   c-0.01,0,0.2-0.03,0.33-0.06c0.13-0.01,0.35-0.04,0.34-0.03c0.19-0.01,0.37-0.01,0.56-0.01c0.19,0,0.37,0.02,0.56,0.03   c0.06,0,0.09,0,0.12,0c0.03,0.01,0.06,0.02,0.12,0.03c0.42,0.1,0.83,0.21,1.24,0.35c0.03,0.01,0.04,0.01,0.06,0.02   c0.01,0.01,0.03,0.02,0.06,0.03c0.22,0.11,0.44,0.22,0.65,0.35c0.12,0.07,0.24,0.15,0.35,0.22c0.07,0.05,0.14,0.1,0.2,0.15   c0.02,0.02,0.06,0.05,0.14,0.12c0.25,0.25,0.49,0.49,0.74,0.74c0.04,0.04,0.07,0.06,0.09,0.09c0.02,0.03,0.03,0.05,0.06,0.09   c0.12,0.17,0.24,0.35,0.34,0.53c0.11,0.18,0.2,0.37,0.3,0.55c0.03,0.05,0.05,0.08,0.06,0.1c0.01,0.03,0.02,0.06,0.03,0.11   c0.14,0.41,0.24,0.82,0.35,1.24c0.01,0.02,0.01,0.06,0.02,0.1c0.03,0.27,0.04,0.54,0.04,0.81   C119.14,165.17,119.13,165.39,119.12,165.62z M111.31,159.73C111.2,159.77,110.99,159.83,111.31,159.73L111.31,159.73z    M130.59,158.34c-0.84,2.04-3.21,3.07-5.28,4.07c-0.54,0.26-1.06,0.49-1.57,0.72c-0.68-3.62-3.18-6.64-6.72-7.97   c-3.94-1.49-8.77-0.21-11.44,3.06c-1.06,1.29-1.79,2.79-2.17,4.36c-4.66,0-9.33,0-13.99,0c-8.52,0-17.05,0-25.57,0   c-1.26,0-2.51,0-3.77,0c-0.82-3.37-3.25-6.15-6.6-7.41c-3.94-1.49-8.77-0.21-11.44,3.06c-0.9,1.1-1.56,2.34-1.97,3.65   c-0.62-0.2-1.24-0.39-1.86-0.59c-0.9-0.29-1.78-0.63-2.68-0.91c-0.42-1.36-0.44-1.95-0.51-3.48c-0.09-1.9-0.05-3.8,0.04-5.69   c0.09-1.77,0.22-3.54,0.41-5.3c0.04-0.34,0.08-0.68,0.12-1.02c0.02-0.19,0.03-0.27,0.03-0.3c0.01-0.03,0.02-0.1,0.04-0.25   c0.07-0.46,0.14-0.93,0.25-1.39c-0.02,0.09,0.14-0.42,0.18-0.57c0.02-0.02,0.05-0.07,0.08-0.11c0.01,0,0.01,0,0.02,0   c-0.02-0.01,0-0.04,0.18-0.09c0.64-0.17,1.7-0.18,2.64-0.27c2.42-0.23,4.95-0.51,7.12-1.69c4.77-2.61,6.16-8.7,10.59-11.73   c10.67-0.08,21.33-0.16,32-0.25c1.32-0.01,2.64-0.02,3.96-0.03c0.07,0.05,0.13,0.09,0.2,0.14c0.08,0.07,0.52,0.42,0.61,0.49   c0.76,0.62,1.5,1.25,2.25,1.89c1.89,1.61,3.77,3.23,5.67,4.83c3.71,3.1,7.61,6.61,12.1,8.55c3.37,1.45,6.99,1.96,10.52,2.77   c0.1,0.03,0.19,0.05,0.29,0.07c1.41,0.33,2.8,0.71,4.16,1.23c0.29,0.11,0.66,0.3,1.09,0.54c0.16,0.09,0.23,0.12,0.28,0.14   c0.03,0.01,0.05,0.03,0.07,0.04c0.04,0.03,0.08,0.09,0.22,0.27c0.02,0.02,0.02,0.03,0.03,0.04c0.01,0.01,0.01,0.02,0.03,0.04   c0.13,0.21,0.25,0.44,0.34,0.66c0.23,0.54,0.37,1.13,0.5,1.7C131.49,153.72,131.43,156.29,130.59,158.34z M160.55,144.29   c-3.72,0-7.43,0-11.15,0v-10.11h-11.15v10.11c-0.23,0-0.47,0-0.7,0c-0.3,0-0.61,0-0.91,0c-1.25,0-2.49,0-3.74,0   c-0.45,0-0.9,0-1.35,0c-1.35-0.76-2.9-1.23-4.45-1.6c0-5.72,0-11.45,0-17.17c0-10.11,0-20.22,0-30.32c0-1.54,0-3.08,0-4.63   c10.35,0,20.7,0,31.05,0c0.8,0,1.6,0,2.4,0c0,3.58,0,7.15,0,10.73c-0.84,0.81-1.58,1.71-2.16,2.73c-1.73,3.02-2,6.49-1.06,9.72   c-6.21,3.96-7.56,12.89-2.67,18.64c1.53,1.79,3.62,3.1,5.88,3.77C160.55,138.87,160.55,141.58,160.55,144.29z M166.5,144.29   c-0.39,0-0.79,0-1.18,0c0-2.57,0-5.15,0-7.72c1.83-0.2,3.55-0.77,5.08-1.68c0,2.75,0,5.5,0,8.25c0,0.46,0.11,0.84,0.29,1.16   C169.29,144.29,167.9,144.29,166.5,144.29z M187.4,129.01c-3.21,4-9.27,3.64-12.23-0.33c0-0.37,0-0.74,0-1.11   c0-0.66-0.02-1.32-0.07-1.98c1.39-0.8,2.79-1.6,4.18-2.4c0.26-0.15,0.52-0.3,0.77-0.44c1.08-0.62,1.55-2.19,0.86-3.27   c-0.7-1.09-2.11-1.52-3.27-0.86c-1.07,0.61-2.14,1.23-3.21,1.84c-0.56-3.02-1.39-6-2.28-8.87c-0.91-2.92-5.52-1.68-4.6,1.27   c1.18,3.79,2.25,7.75,2.65,11.74c0,0,0,0.01,0,0.01c0.11,1.08,0.18,2.16,0.18,3.24c0,0.21,0,0.42,0,0.64   c-2.9,4.13-9.11,4.58-12.36,0.51c-1.43-1.79-2.02-4.24-1.49-6.47c0.63-2.66,2.46-4.55,4.94-5.61c1.24-0.53,1.37-2.23,0.86-3.27   c-2.5-5.01,0.95-10.36,6.21-11.1c0.98-0.14,1.8-1.36,1.75-2.3c-0.11-2.2,1.86-4.02,4.01-3.91c2.57,0.13,3.85,2.41,3.58,4.76   c-0.11,0.94,0.81,2.15,1.75,2.3c2.06,0.33,3.88,1.42,4.73,3.4c0.93,2.16,0.37,4.59-1.22,6.25c-0.07,0.08-0.12,0.15-0.18,0.23   c-0.01,0.01-0.01,0.01-0.01,0.02c-0.08,0.1-0.15,0.21-0.21,0.32c-0.03,0.06-0.06,0.12-0.09,0.18c-0.03,0.06-0.06,0.13-0.08,0.19   c-0.01,0.04-0.03,0.07-0.04,0.11c-0.02,0.09-0.03,0.17-0.04,0.26c0,0.01,0,0.01,0,0.02c-0.19,1.22,0.59,2.22,1.71,2.66   C188.94,118.89,190.57,125.07,187.4,129.01z"></path>
	
		<linearGradient id="SVGID_00000021106828534527852730000018254805861738801052_" gradientUnits="userSpaceOnUse" x1="94.1146" y1="69.6242" x2="94.1146" y2="59.151">
		<stop offset="0" style="stop-color:#1E3063"></stop>
		<stop offset="0.3565" style="stop-color:#1E447E"></stop>
		<stop offset="1" style="stop-color:#1D70B7"></stop>
	</linearGradient>
	<path style="fill:url(#SVGID_00000021106828534527852730000018254805861738801052_);" d="M94.11,69.62   c1.29-0.06,2.39-1.05,2.39-2.39c0-1.66,0-3.33,0-4.99c0-0.24,0-0.47,0-0.71c0-0.61-0.27-1.25-0.7-1.69   c-0.41-0.41-1.09-0.73-1.69-0.7c-1.29,0.06-2.39,1.05-2.39,2.39c0,1.66,0,3.33,0,4.99c0,0.24,0,0.47,0,0.71   c0,0.61,0.27,1.25,0.7,1.69C92.84,69.34,93.52,69.65,94.11,69.62z"></path>
	
		<linearGradient id="SVGID_00000168794932529380795360000012667910960564089521_" gradientUnits="userSpaceOnUse" x1="104.2753" y1="69.6242" x2="104.2753" y2="59.151">
		<stop offset="0" style="stop-color:#1E3063"></stop>
		<stop offset="0.3565" style="stop-color:#1E447E"></stop>
		<stop offset="1" style="stop-color:#1D70B7"></stop>
	</linearGradient>
	<path style="fill:url(#SVGID_00000168794932529380795360000012667910960564089521_);" d="M104.28,69.62   c1.29-0.06,2.39-1.05,2.39-2.39c0-1.66,0-3.33,0-4.99c0-0.24,0-0.47,0-0.71c0-0.61-0.27-1.25-0.7-1.69   c-0.41-0.41-1.09-0.73-1.69-0.7c-1.29,0.06-2.39,1.05-2.39,2.39c0,1.66,0,3.33,0,4.99c0,0.24,0,0.47,0,0.71   c0,0.61,0.27,1.25,0.7,1.69C103,69.34,103.68,69.65,104.28,69.62z"></path>
	
		<linearGradient id="SVGID_00000151545248801748654160000010321005062421745588_" gradientUnits="userSpaceOnUse" x1="114.4361" y1="69.6242" x2="114.4361" y2="59.151">
		<stop offset="0" style="stop-color:#1E3063"></stop>
		<stop offset="0.3565" style="stop-color:#1E447E"></stop>
		<stop offset="1" style="stop-color:#1D70B7"></stop>
	</linearGradient>
	<path style="fill:url(#SVGID_00000151545248801748654160000010321005062421745588_);" d="M114.44,69.62   c1.29-0.06,2.39-1.05,2.39-2.39c0-1.66,0-3.33,0-4.99c0-0.24,0-0.47,0-0.71c0-0.61-0.27-1.25-0.7-1.69   c-0.41-0.41-1.09-0.73-1.69-0.7c-1.29,0.06-2.39,1.05-2.39,2.39c0,1.66,0,3.33,0,4.99c0,0.24,0,0.47,0,0.71   c0,0.61,0.27,1.25,0.7,1.69C113.16,69.34,113.84,69.65,114.44,69.62z"></path>
	
		<linearGradient id="SVGID_00000167381621868914990080000001612593830091095717_" gradientUnits="userSpaceOnUse" x1="124.5967" y1="69.6242" x2="124.5967" y2="59.151">
		<stop offset="0" style="stop-color:#1E3063"></stop>
		<stop offset="0.3565" style="stop-color:#1E447E"></stop>
		<stop offset="1" style="stop-color:#1D70B7"></stop>
	</linearGradient>
	<path style="fill:url(#SVGID_00000167381621868914990080000001612593830091095717_);" d="M124.6,69.62   c1.29-0.06,2.39-1.05,2.39-2.39c0-1.66,0-3.33,0-4.99c0-0.24,0-0.47,0-0.71c0-0.61-0.27-1.25-0.7-1.69   c-0.41-0.41-1.09-0.73-1.69-0.7c-1.29,0.06-2.39,1.05-2.39,2.39c0,1.66,0,3.33,0,4.99c0,0.24,0,0.47,0,0.71   c0,0.61,0.27,1.25,0.7,1.69C123.32,69.34,124,69.65,124.6,69.62z"></path>
	
		<linearGradient id="SVGID_00000162313728180349464050000014509793512427850911_" gradientUnits="userSpaceOnUse" x1="94.1146" y1="89.5839" x2="94.1146" y2="79.1107">
		<stop offset="0" style="stop-color:#1E3063"></stop>
		<stop offset="0.3565" style="stop-color:#1E447E"></stop>
		<stop offset="1" style="stop-color:#1D70B7"></stop>
	</linearGradient>
	<path style="fill:url(#SVGID_00000162313728180349464050000014509793512427850911_);" d="M94.11,89.58   c1.29-0.06,2.39-1.05,2.39-2.39c0-1.66,0-3.33,0-4.99c0-0.24,0-0.47,0-0.71c0-0.61-0.27-1.25-0.7-1.69   c-0.41-0.41-1.09-0.73-1.69-0.7c-1.29,0.06-2.39,1.05-2.39,2.39c0,1.66,0,3.33,0,4.99c0,0.24,0,0.47,0,0.71   c0,0.61,0.27,1.25,0.7,1.69C92.84,89.3,93.52,89.61,94.11,89.58z"></path>
	
		<linearGradient id="SVGID_00000137132429000113071640000007252426965043568041_" gradientUnits="userSpaceOnUse" x1="104.2753" y1="89.5839" x2="104.2753" y2="79.1107">
		<stop offset="0" style="stop-color:#1E3063"></stop>
		<stop offset="0.3565" style="stop-color:#1E447E"></stop>
		<stop offset="1" style="stop-color:#1D70B7"></stop>
	</linearGradient>
	<path style="fill:url(#SVGID_00000137132429000113071640000007252426965043568041_);" d="M104.28,89.58   c1.29-0.06,2.39-1.05,2.39-2.39c0-1.66,0-3.33,0-4.99c0-0.24,0-0.47,0-0.71c0-0.61-0.27-1.25-0.7-1.69   c-0.41-0.41-1.09-0.73-1.69-0.7c-1.29,0.06-2.39,1.05-2.39,2.39c0,1.66,0,3.33,0,4.99c0,0.24,0,0.47,0,0.71   c0,0.61,0.27,1.25,0.7,1.69C103,89.3,103.68,89.61,104.28,89.58z"></path>
	
		<linearGradient id="SVGID_00000089536119936699021620000005544416487305730727_" gradientUnits="userSpaceOnUse" x1="114.4361" y1="89.5839" x2="114.4361" y2="79.1107">
		<stop offset="0" style="stop-color:#1E3063"></stop>
		<stop offset="0.3565" style="stop-color:#1E447E"></stop>
		<stop offset="1" style="stop-color:#1D70B7"></stop>
	</linearGradient>
	<path style="fill:url(#SVGID_00000089536119936699021620000005544416487305730727_);" d="M114.44,89.58   c1.29-0.06,2.39-1.05,2.39-2.39c0-1.66,0-3.33,0-4.99c0-0.24,0-0.47,0-0.71c0-0.61-0.27-1.25-0.7-1.69   c-0.41-0.41-1.09-0.73-1.69-0.7c-1.29,0.06-2.39,1.05-2.39,2.39c0,1.66,0,3.33,0,4.99c0,0.24,0,0.47,0,0.71   c0,0.61,0.27,1.25,0.7,1.69C113.16,89.3,113.84,89.61,114.44,89.58z"></path>
	
		<linearGradient id="SVGID_00000042722596335247114290000016086318219088863106_" gradientUnits="userSpaceOnUse" x1="94.1146" y1="109.5437" x2="94.1146" y2="99.0704">
		<stop offset="0" style="stop-color:#1E3063"></stop>
		<stop offset="0.3565" style="stop-color:#1E447E"></stop>
		<stop offset="1" style="stop-color:#1D70B7"></stop>
	</linearGradient>
	<path style="fill:url(#SVGID_00000042722596335247114290000016086318219088863106_);" d="M94.11,109.54   c1.29-0.06,2.39-1.05,2.39-2.39c0-1.66,0-3.33,0-4.99c0-0.24,0-0.47,0-0.71c0-0.61-0.27-1.25-0.7-1.69   c-0.41-0.41-1.09-0.73-1.69-0.7c-1.29,0.06-2.39,1.05-2.39,2.39c0,1.66,0,3.33,0,4.99c0,0.24,0,0.47,0,0.71   c0,0.61,0.27,1.25,0.7,1.69C92.84,109.26,93.52,109.57,94.11,109.54z"></path>
	
		<linearGradient id="SVGID_00000026125164735489509810000014606110952020119714_" gradientUnits="userSpaceOnUse" x1="104.2753" y1="109.5437" x2="104.2753" y2="99.0704">
		<stop offset="0" style="stop-color:#1E3063"></stop>
		<stop offset="0.3565" style="stop-color:#1E447E"></stop>
		<stop offset="1" style="stop-color:#1D70B7"></stop>
	</linearGradient>
	<path style="fill:url(#SVGID_00000026125164735489509810000014606110952020119714_);" d="M104.28,109.54   c1.29-0.06,2.39-1.05,2.39-2.39c0-1.66,0-3.33,0-4.99c0-0.24,0-0.47,0-0.71c0-0.61-0.27-1.25-0.7-1.69   c-0.41-0.41-1.09-0.73-1.69-0.7c-1.29,0.06-2.39,1.05-2.39,2.39c0,1.66,0,3.33,0,4.99c0,0.24,0,0.47,0,0.71   c0,0.61,0.27,1.25,0.7,1.69C103,109.26,103.68,109.57,104.28,109.54z"></path>
	
		<linearGradient id="SVGID_00000010269209744262368700000008465918392329431743_" gradientUnits="userSpaceOnUse" x1="114.4361" y1="109.5437" x2="114.4361" y2="99.0704">
		<stop offset="0" style="stop-color:#1E3063"></stop>
		<stop offset="0.3565" style="stop-color:#1E447E"></stop>
		<stop offset="1" style="stop-color:#1D70B7"></stop>
	</linearGradient>
	<path style="fill:url(#SVGID_00000010269209744262368700000008465918392329431743_);" d="M114.44,109.54   c1.29-0.06,2.39-1.05,2.39-2.39c0-1.66,0-3.33,0-4.99c0-0.24,0-0.47,0-0.71c0-0.61-0.27-1.25-0.7-1.69   c-0.41-0.41-1.09-0.73-1.69-0.7c-1.29,0.06-2.39,1.05-2.39,2.39c0,1.66,0,3.33,0,4.99c0,0.24,0,0.47,0,0.71   c0,0.61,0.27,1.25,0.7,1.69C113.16,109.26,113.84,109.57,114.44,109.54z"></path>
	
		<linearGradient id="SVGID_00000129912652158226030320000016459942783777012647_" gradientUnits="userSpaceOnUse" x1="104.2753" y1="129.5034" x2="104.2753" y2="119.0302">
		<stop offset="0" style="stop-color:#1E3063"></stop>
		<stop offset="0.3565" style="stop-color:#1E447E"></stop>
		<stop offset="1" style="stop-color:#1D70B7"></stop>
	</linearGradient>
	<path style="fill:url(#SVGID_00000129912652158226030320000016459942783777012647_);" d="M104.28,129.5   c1.29-0.06,2.39-1.05,2.39-2.39c0-1.66,0-3.33,0-4.99c0-0.24,0-0.47,0-0.71c0-0.61-0.27-1.25-0.7-1.69   c-0.41-0.41-1.09-0.73-1.69-0.7c-1.29,0.06-2.39,1.05-2.39,2.39c0,1.66,0,3.33,0,4.99c0,0.24,0,0.47,0,0.71   c0,0.61,0.27,1.25,0.7,1.69C103,129.22,103.68,129.53,104.28,129.5z"></path>
	
		<linearGradient id="SVGID_00000093174019123208401950000000922347072837240980_" gradientUnits="userSpaceOnUse" x1="114.4361" y1="129.5034" x2="114.4361" y2="119.0302">
		<stop offset="0" style="stop-color:#1E3063"></stop>
		<stop offset="0.3565" style="stop-color:#1E447E"></stop>
		<stop offset="1" style="stop-color:#1D70B7"></stop>
	</linearGradient>
	<path style="fill:url(#SVGID_00000093174019123208401950000000922347072837240980_);" d="M114.44,129.5   c1.29-0.06,2.39-1.05,2.39-2.39c0-1.66,0-3.33,0-4.99c0-0.24,0-0.47,0-0.71c0-0.61-0.27-1.25-0.7-1.69   c-0.41-0.41-1.09-0.73-1.69-0.7c-1.29,0.06-2.39,1.05-2.39,2.39c0,1.66,0,3.33,0,4.99c0,0.24,0,0.47,0,0.71   c0,0.61,0.27,1.25,0.7,1.69C113.16,129.22,113.84,129.53,114.44,129.5z"></path>
	
		<linearGradient id="SVGID_00000183960214917716413690000002869899805299710399_" gradientUnits="userSpaceOnUse" x1="133.6637" y1="107.9011" x2="133.6637" y2="97.4279">
		<stop offset="0" style="stop-color:#1E3063"></stop>
		<stop offset="0.3565" style="stop-color:#1E447E"></stop>
		<stop offset="1" style="stop-color:#1D70B7"></stop>
	</linearGradient>
	<path style="fill:url(#SVGID_00000183960214917716413690000002869899805299710399_);" d="M133.66,97.43   c-1.29,0.06-2.39,1.05-2.39,2.39c0,1.66,0,3.33,0,4.99c0,0.24,0,0.47,0,0.71c0,0.61,0.27,1.25,0.7,1.69   c0.41,0.41,1.09,0.73,1.69,0.7c1.29-0.06,2.39-1.05,2.39-2.39c0-1.66,0-3.33,0-4.99c0-0.24,0-0.47,0-0.71   c0-0.61-0.27-1.25-0.7-1.69C134.94,97.71,134.26,97.4,133.66,97.43z"></path>
	
		<linearGradient id="SVGID_00000047776800888325823240000007924572395681219456_" gradientUnits="userSpaceOnUse" x1="143.8243" y1="107.9011" x2="143.8243" y2="97.4279">
		<stop offset="0" style="stop-color:#1E3063"></stop>
		<stop offset="0.3565" style="stop-color:#1E447E"></stop>
		<stop offset="1" style="stop-color:#1D70B7"></stop>
	</linearGradient>
	<path style="fill:url(#SVGID_00000047776800888325823240000007924572395681219456_);" d="M143.82,97.43   c-1.29,0.06-2.39,1.05-2.39,2.39c0,1.66,0,3.33,0,4.99c0,0.24,0,0.47,0,0.71c0,0.61,0.27,1.25,0.7,1.69   c0.41,0.41,1.09,0.73,1.69,0.7c1.29-0.06,2.39-1.05,2.39-2.39c0-1.66,0-3.33,0-4.99c0-0.24,0-0.47,0-0.71   c0-0.61-0.27-1.25-0.7-1.69C145.1,97.71,144.42,97.4,143.82,97.43z"></path>
	
		<linearGradient id="SVGID_00000097472367971545141900000003511674961664743312_" gradientUnits="userSpaceOnUse" x1="153.9851" y1="107.9011" x2="153.9851" y2="97.4279">
		<stop offset="0" style="stop-color:#1E3063"></stop>
		<stop offset="0.3565" style="stop-color:#1E447E"></stop>
		<stop offset="1" style="stop-color:#1D70B7"></stop>
	</linearGradient>
	<path style="fill:url(#SVGID_00000097472367971545141900000003511674961664743312_);" d="M153.99,107.9   c1.29-0.06,2.39-1.05,2.39-2.39c0-1.66,0-3.33,0-4.99c0-0.24,0-0.47,0-0.71c0-0.61-0.27-1.25-0.7-1.69   c-0.41-0.41-1.09-0.73-1.69-0.7c-1.29,0.06-2.39,1.05-2.39,2.39c0,1.66,0,3.33,0,4.99c0,0.24,0,0.47,0,0.71   c0,0.61,0.27,1.25,0.7,1.69C152.71,107.61,153.39,107.93,153.99,107.9z"></path>
	
		<linearGradient id="SVGID_00000048490027080416269060000015241947327851052718_" gradientUnits="userSpaceOnUse" x1="133.6637" y1="127.8609" x2="133.6637" y2="117.3877">
		<stop offset="0" style="stop-color:#1E3063"></stop>
		<stop offset="0.3565" style="stop-color:#1E447E"></stop>
		<stop offset="1" style="stop-color:#1D70B7"></stop>
	</linearGradient>
	<path style="fill:url(#SVGID_00000048490027080416269060000015241947327851052718_);" d="M133.66,117.39   c-1.29,0.06-2.39,1.05-2.39,2.39c0,1.66,0,3.33,0,4.99c0,0.24,0,0.47,0,0.71c0,0.61,0.27,1.25,0.7,1.69   c0.41,0.41,1.09,0.73,1.69,0.7c1.29-0.06,2.39-1.05,2.39-2.39c0-1.66,0-3.33,0-4.99c0-0.24,0-0.47,0-0.71   c0-0.61-0.27-1.25-0.7-1.69C134.94,117.67,134.26,117.36,133.66,117.39z"></path>
	
		<linearGradient id="SVGID_00000170995926366105263700000007637774070830923452_" gradientUnits="userSpaceOnUse" x1="143.8243" y1="127.8609" x2="143.8243" y2="117.3877">
		<stop offset="0" style="stop-color:#1E3063"></stop>
		<stop offset="0.3565" style="stop-color:#1E447E"></stop>
		<stop offset="1" style="stop-color:#1D70B7"></stop>
	</linearGradient>
	<path style="fill:url(#SVGID_00000170995926366105263700000007637774070830923452_);" d="M143.82,117.39   c-1.29,0.06-2.39,1.05-2.39,2.39c0,1.66,0,3.33,0,4.99c0,0.24,0,0.47,0,0.71c0,0.61,0.27,1.25,0.7,1.69   c0.41,0.41,1.09,0.73,1.69,0.7c1.29-0.06,2.39-1.05,2.39-2.39c0-1.66,0-3.33,0-4.99c0-0.24,0-0.47,0-0.71   c0-0.61-0.27-1.25-0.7-1.69C145.1,117.67,144.42,117.36,143.82,117.39z"></path>
	
		<linearGradient id="SVGID_00000115500290578887301510000017000981385547346312_" gradientUnits="userSpaceOnUse" x1="36.2239" y1="142.259" x2="36.2239" y2="142.2459">
		<stop offset="0" style="stop-color:#1E3063"></stop>
		<stop offset="0.3565" style="stop-color:#1E447E"></stop>
		<stop offset="1" style="stop-color:#1D70B7"></stop>
	</linearGradient>
	<path style="fill:url(#SVGID_00000115500290578887301510000017000981385547346312_);" d="M36.18,142.25   C36.22,142.27,36.36,142.26,36.18,142.25L36.18,142.25z"></path>
	
		<linearGradient id="SVGID_00000095340902840267485030000014950413586214696349_" gradientUnits="userSpaceOnUse" x1="63.2314" y1="145.1019" x2="63.2314" y2="132.0042">
		<stop offset="0" style="stop-color:#1E3063"></stop>
		<stop offset="0.3565" style="stop-color:#1E447E"></stop>
		<stop offset="1" style="stop-color:#1D70B7"></stop>
	</linearGradient>
	<path style="fill:url(#SVGID_00000095340902840267485030000014950413586214696349_);" d="M72.05,140.33c-4.65,0-9.3,0-13.95,0   c0.73-1.77,1.46-3.53,2.19-5.3c0.49-1.19-0.53-2.62-1.67-2.94c-1.37-0.38-2.44,0.47-2.94,1.67c-1.15,2.77-2.3,5.55-3.44,8.32   c-0.61,1.47,0.91,3.02,2.3,3.02c5.11,0,10.22,0,15.33,0c0.72,0,1.45,0,2.17,0C75.12,145.1,75.12,140.33,72.05,140.33z"></path>
	
		<linearGradient id="SVGID_00000116942024863182760870000002939768022952238006_" gradientUnits="userSpaceOnUse" x1="88.6463" y1="145.1019" x2="88.6463" y2="132.0906">
		<stop offset="0" style="stop-color:#1E3063"></stop>
		<stop offset="0.3565" style="stop-color:#1E447E"></stop>
		<stop offset="1" style="stop-color:#1D70B7"></stop>
	</linearGradient>
	<path style="fill:url(#SVGID_00000116942024863182760870000002939768022952238006_);" d="M97.44,140.33c-5.04,0-10.08,0-15.11,0   c0-1.98,0-3.96,0-5.93c0-3.07-4.77-3.08-4.77,0c0,2.77,0,5.55,0,8.32c0,1.29,1.09,2.39,2.39,2.39c5.11,0,10.22,0,15.33,0   c0.72,0,1.45,0,2.17,0C100.51,145.1,100.51,140.33,97.44,140.33z"></path>
	
		<linearGradient id="SVGID_00000169547061633847816560000011433592679869131149_" gradientUnits="userSpaceOnUse" x1="90.5049" y1="153.5648" x2="90.5049" y2="148.7917">
		<stop offset="0" style="stop-color:#1E3063"></stop>
		<stop offset="0.3565" style="stop-color:#1E447E"></stop>
		<stop offset="1" style="stop-color:#1D70B7"></stop>
	</linearGradient>
	<path style="fill:url(#SVGID_00000169547061633847816560000011433592679869131149_);" d="M95.51,148.79c-2.92,0-5.84,0-8.77,0   c-0.41,0-0.83,0-1.24,0c-1.25,0-2.44,1.1-2.39,2.39c0.06,1.29,1.05,2.39,2.39,2.39c2.92,0,5.84,0,8.77,0c0.41,0,0.83,0,1.24,0   c1.25,0,2.44-1.1,2.39-2.39C97.84,149.89,96.85,148.79,95.51,148.79z"></path>
</g>
</svg>
