<?xml version="1.0" encoding="UTF-8"?>
<!-- Generator: Adobe Illustrator 27.3.1, SVG Export Plug-In . SVG Version: 6.00 Build 0)  -->
<svg xmlns="http://www.w3.org/2000/svg" xmlns:xlink="http://www.w3.org/1999/xlink" version="1.1" id="Layer_1" x="0px" y="0px" viewBox="0 0 224 224" style="enable-background:new 0 0 224 224;" xml:space="preserve">
<style type="text/css">
	.st0{fill:#FFFFFF;}
	.st1{fill:url(#SVGID_1_);}
	.st2{fill:url(#SVGID_00000031925849970047737780000008254641518770613690_);}
	.st3{fill:url(#SVGID_00000051349231320191514010000005150665821294417329_);}
	.st4{fill:url(#SVGID_00000039816218340791610760000012005538163616726415_);}
	.st5{fill:url(#SVGID_00000090254323819688259850000002648526560055452582_);}
	.st6{fill:url(#SVGID_00000033349192268825435900000011895178754127666839_);}
	.st7{fill:url(#SVGID_00000024720956288050881470000011278637513080770458_);}
	.st8{fill:url(#SVGID_00000126318688936596466670000011729364827731720370_);}
	.st9{fill:url(#SVGID_00000101072449115999161220000013495279219928598150_);}
	.st10{fill:url(#SVGID_00000039101634530596410450000006279411195911834537_);}
</style>
<g>
	<path class="st0" d="M204.16,224H19.84C8.88,224,0,215.12,0,204.16V19.84C0,8.88,8.88,0,19.84,0h184.31   C215.12,0,224,8.88,224,19.84v184.31C224,215.12,215.12,224,204.16,224z"></path>
	<g>
		<linearGradient id="SVGID_1_" gradientUnits="userSpaceOnUse" x1="71.3252" y1="123.2486" x2="71.3252" y2="123.2354">
			<stop offset="0" style="stop-color:#1E3063"></stop>
			<stop offset="0.3565" style="stop-color:#1E447E"></stop>
			<stop offset="1" style="stop-color:#1D70B7"></stop>
		</linearGradient>
		<path class="st1" d="M71.28,123.24C71.32,123.26,71.46,123.25,71.28,123.24L71.28,123.24z"></path>
		
			<linearGradient id="SVGID_00000058563362918630754840000012791881619662153889_" gradientUnits="userSpaceOnUse" x1="98.3641" y1="126.0948" x2="98.3641" y2="112.9818">
			<stop offset="0" style="stop-color:#1E3063"></stop>
			<stop offset="0.3565" style="stop-color:#1E447E"></stop>
			<stop offset="1" style="stop-color:#1D70B7"></stop>
		</linearGradient>
		<path style="fill:url(#SVGID_00000058563362918630754840000012791881619662153889_);" d="M107.19,121.32c-4.65,0-9.31,0-13.96,0    c0.73-1.77,1.46-3.54,2.19-5.3c0.49-1.19-0.53-2.63-1.67-2.94c-1.37-0.38-2.44,0.47-2.94,1.67c-1.15,2.78-2.3,5.55-3.45,8.33    c-0.61,1.47,0.91,3.02,2.3,3.02c5.12,0,10.23,0,15.35,0c0.72,0,1.45,0,2.17,0C110.27,126.09,110.27,121.32,107.19,121.32z"></path>
		
			<linearGradient id="SVGID_00000086651393484329967820000007795139426149459867_" gradientUnits="userSpaceOnUse" x1="123.8086" y1="126.0948" x2="123.8086" y2="113.0684">
			<stop offset="0" style="stop-color:#1E3063"></stop>
			<stop offset="0.3565" style="stop-color:#1E447E"></stop>
			<stop offset="1" style="stop-color:#1D70B7"></stop>
		</linearGradient>
		<path style="fill:url(#SVGID_00000086651393484329967820000007795139426149459867_);" d="M132.61,121.32c-5.04,0-10.09,0-15.13,0    c0-1.98,0-3.96,0-5.94c0-3.07-4.78-3.08-4.78,0c0,2.78,0,5.55,0,8.33c0,1.29,1.09,2.39,2.39,2.39c5.12,0,10.23,0,15.35,0    c0.72,0,1.45,0,2.17,0C135.68,126.09,135.69,121.32,132.61,121.32z"></path>
		
			<linearGradient id="SVGID_00000106116175888430293110000015013555820410998162_" gradientUnits="userSpaceOnUse" x1="125.6693" y1="134.5675" x2="125.6693" y2="129.7888">
			<stop offset="0" style="stop-color:#1E3063"></stop>
			<stop offset="0.3565" style="stop-color:#1E447E"></stop>
			<stop offset="1" style="stop-color:#1D70B7"></stop>
		</linearGradient>
		<path style="fill:url(#SVGID_00000106116175888430293110000015013555820410998162_);" d="M130.68,129.79c-2.93,0-5.85,0-8.78,0    c-0.41,0-0.83,0-1.24,0c-1.25,0-2.45,1.1-2.39,2.39c0.06,1.29,1.05,2.39,2.39,2.39c2.93,0,5.85,0,8.78,0c0.41,0,0.83,0,1.24,0    c1.25,0,2.45-1.1,2.39-2.39C133.01,130.88,132.02,129.79,130.68,129.79z"></path>
		
			<linearGradient id="SVGID_00000070099467450905597580000008921881500281107114_" gradientUnits="userSpaceOnUse" x1="143.9344" y1="107.168" x2="143.9344" y2="79.2057">
			<stop offset="0" style="stop-color:#1E3063"></stop>
			<stop offset="0.3565" style="stop-color:#1E447E"></stop>
			<stop offset="1" style="stop-color:#1D70B7"></stop>
		</linearGradient>
		<path style="fill:url(#SVGID_00000070099467450905597580000008921881500281107114_);" d="M145.66,106.16    c2.08-4.14,4.16-8.27,6.24-12.41c0.75-1.49-0.49-3.45-2.25-2.92c-2.67,0.79-5.33,1.59-8,2.38c1.92-3.67,3.85-7.33,5.77-11    c1.19-2.27-2.25-4.28-3.44-2.01c-2.67,5.09-5.34,10.17-8.01,15.26c-0.78,1.48,0.52,3.44,2.25,2.92c2.7-0.8,5.4-1.61,8.11-2.41    c-1.37,2.73-2.74,5.45-4.11,8.18C141.07,106.43,144.51,108.45,145.66,106.16z"></path>
		
			<linearGradient id="SVGID_00000126297786876691636000000007400230941674376093_" gradientUnits="userSpaceOnUse" x1="143.9344" y1="116.1321" x2="143.9344" y2="67.52">
			<stop offset="0" style="stop-color:#1E3063"></stop>
			<stop offset="0.3565" style="stop-color:#1E447E"></stop>
			<stop offset="1" style="stop-color:#1D70B7"></stop>
		</linearGradient>
		<path style="fill:url(#SVGID_00000126297786876691636000000007400230941674376093_);" d="M120.85,98.47c1.18,0,2.54-1.1,2.39-2.39    c-0.69-6.07,0.97-12.2,5.1-16.78c3.89-4.32,9.4-6.9,15.23-6.99c12.31-0.19,22.12,10.48,21.18,22.68    c-0.55,7.1-4.94,13.36-11.15,16.71c-2.71,1.46-0.3,5.59,2.41,4.13c6.63-3.58,11.59-10.04,13.05-17.46    c1.41-7.13-0.17-14.67-4.56-20.49c-4.35-5.77-10.81-9.41-17.99-10.21c-7.14-0.79-14.37,1.68-19.72,6.42    c-6.16,5.47-9.28,13.84-8.35,21.99C118.61,97.36,119.45,98.47,120.85,98.47z"></path>
		
			<linearGradient id="SVGID_00000115512164035482687950000017162149267429378439_" gradientUnits="userSpaceOnUse" x1="76.9953" y1="112.6692" x2="76.9953" y2="96.6207">
			<stop offset="0" style="stop-color:#1E3063"></stop>
			<stop offset="0.3565" style="stop-color:#1E447E"></stop>
			<stop offset="1" style="stop-color:#1D70B7"></stop>
		</linearGradient>
		<path style="fill:url(#SVGID_00000115512164035482687950000017162149267429378439_);" d="M80.13,103.12    c-1.33,0.39-2.65,0.79-3.98,1.18c0.99-1.89,1.99-3.79,2.98-5.68c0.79-1.51-1.5-2.85-2.29-1.34c-1.49,2.84-2.98,5.68-4.47,8.52    c-0.52,0.99,0.34,2.29,1.5,1.95c1.35-0.4,2.7-0.8,4.05-1.21c-0.69,1.37-1.38,2.74-2.07,4.11c-0.77,1.52,1.52,2.87,2.29,1.34    c1.16-2.31,2.32-4.62,3.48-6.93C82.13,104.08,81.3,102.77,80.13,103.12z"></path>
		
			<linearGradient id="SVGID_00000005238742156432040170000000648895112759582874_" gradientUnits="userSpaceOnUse" x1="64.8679" y1="92.7956" x2="64.8679" y2="80.1241">
			<stop offset="0" style="stop-color:#1E3063"></stop>
			<stop offset="0.3565" style="stop-color:#1E447E"></stop>
			<stop offset="1" style="stop-color:#1D70B7"></stop>
		</linearGradient>
		<path style="fill:url(#SVGID_00000005238742156432040170000000648895112759582874_);" d="M68.28,91.29v-9.66    c0-0.83-0.67-1.51-1.51-1.51h-3.81c-0.83,0-1.51,0.67-1.51,1.51v9.66c0,0.83,0.67,1.51,1.51,1.51h3.81    C67.6,92.8,68.28,92.12,68.28,91.29z"></path>
		
			<linearGradient id="SVGID_00000140735093364549011730000015162023371074088365_" gradientUnits="userSpaceOnUse" x1="81.9422" y1="92.7956" x2="81.9422" y2="80.1241">
			<stop offset="0" style="stop-color:#1E3063"></stop>
			<stop offset="0.3565" style="stop-color:#1E447E"></stop>
			<stop offset="1" style="stop-color:#1D70B7"></stop>
		</linearGradient>
		<path style="fill:url(#SVGID_00000140735093364549011730000015162023371074088365_);" d="M72.85,92.8h18.18    c0.83,0,1.51-0.67,1.51-1.51v-9.66c0-0.83-0.67-1.51-1.51-1.51H72.85c-0.83,0-1.51,0.67-1.51,1.51v9.66    C71.35,92.12,72.02,92.8,72.85,92.8z"></path>
		
			<linearGradient id="SVGID_00000141456338758077535660000007781829322232837046_" gradientUnits="userSpaceOnUse" x1="112" y1="156.48" x2="112" y2="70.4202">
			<stop offset="0" style="stop-color:#1E3063"></stop>
			<stop offset="0.3565" style="stop-color:#1E447E"></stop>
			<stop offset="1" style="stop-color:#1D70B7"></stop>
		</linearGradient>
		<path style="fill:url(#SVGID_00000141456338758077535660000007781829322232837046_);" d="M181.9,151.62c-4.65,0-9.3,0-13.95,0    c-3.51,0-7.03,0-10.54,0c0.44-0.68,0.8-1.41,1.08-2.17c2.17-0.82,4.32-1.76,6.34-2.88c1.45-0.81,2.95-1.75,4-3.06    c1.23-1.53,1.89-3.43,2.19-5.35c0.58-3.66,0.37-8.76-2.45-11.55c-2.43-2.41-6.47-2.95-9.67-3.63c-3.62-0.76-7.28-1.47-10.46-3.44    c-3.11-1.93-5.95-4.29-8.75-6.64c-2.65-2.22-5.22-4.53-7.91-6.7c-0.94-0.76-1.93-1.75-3.2-1.82c-0.29-0.02-0.58,0-0.87,0.01    c-8.81,0.07-17.62,0.14-26.43,0.2c0-4.23,0-8.46,0-12.69c0-2.75,0-5.5,0-8.24c0-2.79-0.19-5.48-1.64-7.97    c-1.92-3.3-5.29-5.22-9.08-5.24c-2-0.01-3.99,0-5.99,0c-6.23,0-12.46,0-18.69,0c-1.86,0-3.8-0.14-5.6,0.43    c-4.73,1.49-7.46,6.21-7.54,11c-0.04,2.38,0,4.76,0,7.15c0,12.28,0,24.55,0,36.83c0,8.57-0.14,17.16-0.02,25.73    c-3.46-0.04-6.92-0.07-10.37,0.05c-0.08,0-0.16,0-0.24,0c-3.07,0-3.08,4.78,0,4.78c4.34,0,8.68,0,13.02,0c0.31,0,0.62,0,0.93,0    c11.12,0,22.24,0,33.35,0c1.32,0,2.64,0,3.97,0c1.83,0,3.67,0,5.5,0c10.33,0,20.66,0,31,0c11.62,0,23.23,0,34.85,0    c5.63,0,11.3,0.19,16.94,0c0.08,0,0.16,0,0.24,0C184.97,156.4,184.98,151.62,181.9,151.62z M60.62,151.62c-0.45,0-0.9,0-1.34,0    c-0.59,0-1.18-0.01-1.77-0.01c0-6.56,0-13.12,0-19.69c0-12.52,0-25.05,0-37.57c0-3.72,0-7.43,0-11.15c0-0.99-0.05-2.01,0.17-2.98    c0.65-2.85,2.76-4.98,5.74-5c5.1-0.02,10.19,0,15.29,0c2.91,0,5.81,0,8.72,0c1.36,0,2.85-0.17,4.2,0.04    c5.88,0.89,4.85,8.51,4.85,12.77c0,5.53,0,11.06,0,16.59c-1.26,0.01-2.51,0.02-3.77,0.03c-0.46,0-0.91-0.01-1.37,0.01    c-1.17,0.05-2.05,0.67-2.95,1.37c-1.8,1.39-3.21,3.15-4.54,4.99c-1.17,1.61-2.17,3.42-3.55,4.87c-2.58,2.71-6.56,1.85-9.89,2.6    c-3.36,0.76-4.06,3.8-4.44,6.75c-0.38,2.89-0.6,5.8-0.68,8.71c-0.07,2.8-0.18,5.93,0.68,8.63c0.36,1.13,0.94,2.26,2.01,2.87    c1.54,0.87,3.51,1.28,5.18,1.82c0.55,0.18,1.09,0.34,1.64,0.51c0.2,1.22,0.62,2.41,1.28,3.52c0.07,0.11,0.14,0.22,0.21,0.33    C71.09,151.62,65.85,151.62,60.62,151.62z M71.3,123.17c0.02-0.04,0-0.03-0.07,0.06c0,0,0,0,0,0    C71.42,122.98,71.37,123.08,71.3,123.17z M71.22,123.23c-0.01,0.01-0.01,0.02-0.03,0.03C71.21,123.25,71.21,123.24,71.22,123.23    C71.22,123.23,71.22,123.23,71.22,123.23z M70.67,141.53c0.23,0.22,0.17,0.23,0.03,0.04C70.69,141.55,70.69,141.55,70.67,141.53    C70.68,141.53,70.67,141.53,70.67,141.53z M80.6,149.44C80.81,149.68,80.68,149.53,80.6,149.44L80.6,149.44z M82.86,151.18    C82.75,151.13,82.62,151.07,82.86,151.18L82.86,151.18z M90.69,146.76C90.68,146.96,90.68,146.86,90.69,146.76L90.69,146.76z     M90.7,146.63c0,0.02,0,0.03,0,0.05c-0.06,0.35-0.14,0.69-0.24,1.02c-0.06,0.18-0.12,0.37-0.19,0.54    c-0.01,0.02-0.02,0.04-0.04,0.07c-0.21,0.37-0.41,0.73-0.65,1.08c-0.01,0.02-0.02,0.03-0.03,0.04c-0.01,0.01-0.02,0.02-0.05,0.05    c-0.12,0.13-0.23,0.26-0.35,0.39c-0.08,0.08-0.51,0.46-0.56,0.52c-0.25,0.18-0.51,0.36-0.78,0.51c-0.12,0.07-0.25,0.13-0.37,0.2    c-0.08,0.04-0.13,0.06-0.16,0.07c-0.05,0.02-0.1,0.04-0.15,0.06c-0.34,0.11-0.68,0.22-1.04,0.29c-0.06,0.01-0.21,0.04-0.29,0.05    c-0.13,0.01-0.26,0.02-0.39,0.03c-0.37,0.02-0.75,0-1.12-0.03c-0.02,0-0.02,0-0.03,0c-0.03-0.01-0.05-0.01-0.09-0.02    c-0.21-0.05-0.42-0.09-0.63-0.15c-0.21-0.06-0.41-0.13-0.61-0.2c-0.01,0-0.02-0.01-0.04-0.02c-0.31-0.15-0.61-0.31-0.9-0.49    c-0.15-0.09-0.29-0.19-0.43-0.3c-0.01-0.01-0.01-0.01-0.02-0.01c-0.02-0.02-0.04-0.04-0.07-0.07c-0.3-0.29-0.59-0.57-0.87-0.89    c-0.01-0.01-0.01-0.02-0.02-0.02c-0.12-0.18-0.24-0.35-0.34-0.53c-0.06-0.11-0.32-0.63-0.36-0.68c-0.11-0.29-0.22-0.6-0.29-0.9    c-0.04-0.14-0.06-0.28-0.09-0.42c-0.01-0.06-0.02-0.11-0.02-0.14c-0.01-0.07-0.01-0.13-0.02-0.2c-0.02-0.34-0.03-0.67-0.01-1.01    c0-0.06,0.08-0.56,0.04-0.4c0.02-0.09,0.03-0.18,0.05-0.27c0.08-0.35,0.19-0.69,0.3-1.03c0.02-0.05,0.02-0.07,0.03-0.1    c0.02-0.03,0.03-0.05,0.06-0.11c0.1-0.18,0.19-0.37,0.3-0.56c0.09-0.15,0.19-0.29,0.28-0.44c0.02-0.03,0.07-0.09,0.11-0.15    c0.22-0.25,0.43-0.49,0.68-0.71c-0.01,0.01,0.15-0.13,0.24-0.21c0.1-0.07,0.27-0.2,0.26-0.19c0.35-0.23,0.71-0.43,1.09-0.61    c0.01,0,0.02-0.01,0.03-0.01c0.2-0.07,0.4-0.14,0.61-0.2c0.14-0.04,0.28-0.07,0.42-0.11c-0.01,0,0.2-0.03,0.33-0.06    c0.13-0.01,0.36-0.04,0.34-0.03c0.19-0.01,0.37-0.01,0.56-0.01c0.19,0,0.37,0.02,0.56,0.03c0.06,0,0.09,0,0.12,0    c0.03,0.01,0.06,0.02,0.12,0.03c0.42,0.1,0.83,0.21,1.24,0.35c0.03,0.01,0.04,0.01,0.06,0.02c0.01,0.01,0.03,0.02,0.06,0.03    c0.22,0.11,0.44,0.22,0.65,0.35c0.12,0.07,0.24,0.15,0.36,0.23c0.07,0.05,0.14,0.1,0.2,0.15c0.02,0.02,0.06,0.05,0.14,0.12    c0.25,0.25,0.49,0.49,0.74,0.74c0.04,0.04,0.07,0.06,0.09,0.09c0.02,0.03,0.03,0.05,0.06,0.09c0.12,0.18,0.24,0.35,0.34,0.53    c0.11,0.18,0.2,0.37,0.3,0.56c0.03,0.05,0.05,0.08,0.06,0.1c0.01,0.03,0.02,0.06,0.03,0.11c0.14,0.41,0.24,0.82,0.35,1.24    c0.01,0.02,0.01,0.06,0.02,0.1c0.03,0.27,0.04,0.54,0.04,0.81C90.73,146.19,90.71,146.41,90.7,146.63z M82.88,140.74    C82.77,140.78,82.56,140.84,82.88,140.74L82.88,140.74z M134.59,151.62c-11.91,0-23.81,0-35.72,0c-1.58,0-3.16,0-4.75,0    c-0.11,0-0.23,0-0.34,0c0.64-1,1.12-2.1,1.4-3.26c4.67,0,9.33,0,14,0c8.53,0,17.07,0,25.6,0c1.25,0,2.5,0,3.75,0    c0.23,1.01,0.62,2,1.17,2.94c0.07,0.11,0.14,0.22,0.21,0.33C138.15,151.62,136.37,151.62,134.59,151.62z M144.22,149.44    C144.42,149.68,144.29,149.53,144.22,149.44L144.22,149.44z M146.47,151.18C146.37,151.13,146.24,151.07,146.47,151.18    L146.47,151.18z M154.31,146.75C154.3,146.96,154.3,146.86,154.31,146.75L154.31,146.75z M154.32,146.63c0,0.02,0,0.03,0,0.05    c-0.06,0.35-0.14,0.69-0.24,1.02c-0.06,0.18-0.12,0.37-0.19,0.54c-0.01,0.02-0.02,0.04-0.04,0.07c-0.21,0.37-0.41,0.73-0.65,1.08    c-0.01,0.02-0.02,0.03-0.03,0.04c-0.01,0.01-0.02,0.02-0.05,0.05c-0.12,0.13-0.23,0.26-0.35,0.39c-0.08,0.08-0.51,0.46-0.56,0.52    c-0.25,0.18-0.51,0.36-0.78,0.51c-0.12,0.07-0.25,0.13-0.37,0.2c-0.08,0.04-0.13,0.06-0.16,0.07c-0.05,0.02-0.1,0.04-0.15,0.06    c-0.34,0.11-0.68,0.22-1.04,0.29c-0.06,0.01-0.21,0.04-0.29,0.05c-0.13,0.01-0.26,0.02-0.39,0.03c-0.37,0.02-0.75,0-1.12-0.03    c-0.02,0-0.02,0-0.03,0c-0.03-0.01-0.05-0.01-0.09-0.02c-0.21-0.05-0.42-0.09-0.63-0.15c-0.21-0.06-0.41-0.13-0.61-0.2    c-0.01,0-0.02-0.01-0.04-0.02c-0.31-0.15-0.61-0.31-0.9-0.49c-0.15-0.09-0.29-0.19-0.43-0.3c-0.01-0.01-0.01-0.01-0.02-0.01    c-0.02-0.02-0.04-0.04-0.07-0.07c-0.3-0.29-0.59-0.57-0.87-0.89c-0.01-0.01-0.01-0.02-0.02-0.02c-0.12-0.18-0.24-0.35-0.34-0.53    c-0.06-0.11-0.32-0.63-0.36-0.68c-0.11-0.29-0.22-0.6-0.29-0.9c-0.04-0.14-0.06-0.28-0.09-0.42c-0.01-0.06-0.02-0.11-0.02-0.14    c-0.01-0.07-0.01-0.13-0.02-0.2c-0.02-0.34-0.03-0.67-0.01-1.01c0-0.06,0.08-0.56,0.04-0.4c0.02-0.09,0.03-0.18,0.05-0.27    c0.08-0.35,0.19-0.69,0.3-1.03c0.02-0.05,0.02-0.07,0.03-0.1c0.02-0.03,0.03-0.05,0.06-0.11c0.1-0.18,0.19-0.37,0.3-0.56    c0.09-0.15,0.19-0.29,0.28-0.44c0.02-0.03,0.07-0.09,0.11-0.15c0.22-0.25,0.43-0.49,0.68-0.71c-0.01,0.01,0.15-0.13,0.24-0.21    c0.1-0.07,0.27-0.2,0.26-0.19c0.35-0.23,0.71-0.43,1.09-0.61c0.01,0,0.02-0.01,0.03-0.01c0.2-0.07,0.4-0.14,0.61-0.2    c0.14-0.04,0.28-0.07,0.42-0.11c-0.01,0,0.2-0.03,0.33-0.06c0.13-0.01,0.36-0.04,0.34-0.03c0.19-0.01,0.37-0.01,0.56-0.01    c0.19,0,0.37,0.02,0.56,0.03c0.06,0,0.09,0,0.12,0c0.03,0.01,0.06,0.02,0.12,0.03c0.42,0.1,0.83,0.21,1.24,0.35    c0.03,0.01,0.04,0.01,0.06,0.02c0.01,0.01,0.03,0.02,0.06,0.03c0.22,0.11,0.44,0.22,0.65,0.35c0.12,0.07,0.24,0.15,0.36,0.23    c0.07,0.05,0.14,0.1,0.2,0.15c0.02,0.02,0.06,0.05,0.14,0.12c0.25,0.25,0.49,0.49,0.74,0.74c0.04,0.04,0.07,0.06,0.09,0.09    c0.02,0.03,0.03,0.05,0.05,0.09c0.12,0.18,0.24,0.35,0.34,0.53c0.11,0.18,0.2,0.37,0.3,0.56c0.03,0.05,0.05,0.08,0.06,0.1    c0.01,0.03,0.02,0.06,0.03,0.11c0.14,0.41,0.24,0.82,0.35,1.24c0.01,0.02,0.01,0.06,0.02,0.1c0.03,0.27,0.04,0.54,0.04,0.81    C154.34,146.19,154.33,146.41,154.32,146.63z M146.5,140.74C146.39,140.78,146.18,140.84,146.5,140.74L146.5,140.74z     M152.21,136.15c-3.95-1.49-8.78-0.21-11.45,3.06c-1.06,1.29-1.79,2.79-2.17,4.36c-4.67,0-9.34,0-14.01,0c-8.53,0-17.07,0-25.6,0    c-1.26,0-2.51,0-3.77,0c-0.82-3.38-3.25-6.16-6.61-7.42c-3.95-1.49-8.78-0.21-11.45,3.06c-0.9,1.1-1.56,2.35-1.97,3.66    c-0.62-0.2-1.24-0.39-1.86-0.59c-0.9-0.29-1.78-0.63-2.68-0.92c-0.42-1.37-0.44-1.96-0.51-3.48c-0.09-1.9-0.05-3.8,0.04-5.7    c0.09-1.77,0.22-3.54,0.41-5.31c0.04-0.34,0.08-0.68,0.12-1.02c0.02-0.19,0.03-0.27,0.03-0.3c0.01-0.03,0.02-0.1,0.04-0.25    c0.07-0.46,0.14-0.93,0.25-1.39c-0.02,0.09,0.14-0.42,0.18-0.57c0.02-0.02,0.05-0.07,0.08-0.11c0.01,0,0.01,0,0.02,0    c-0.02-0.01,0-0.04,0.18-0.09c0.64-0.17,1.7-0.18,2.65-0.27c2.43-0.23,4.95-0.51,7.13-1.7c4.77-2.61,6.17-8.71,10.6-11.75    c10.68-0.08,21.36-0.16,32.04-0.25c1.32-0.01,2.64-0.02,3.96-0.03c0.07,0.05,0.13,0.09,0.2,0.14c0.08,0.07,0.52,0.42,0.61,0.49    c0.76,0.62,1.51,1.25,2.25,1.89c1.89,1.61,3.77,3.24,5.68,4.83c3.72,3.11,7.62,6.62,12.11,8.56c4.81,2.07,10.13,2.21,14.98,4.07    c0.29,0.11,0.66,0.3,1.09,0.54c0.45,0.25,0.26,0.06,0.57,0.46c0.02,0.02,0.02,0.03,0.03,0.04c0.01,0.01,0.01,0.02,0.03,0.04    c0.13,0.21,0.25,0.44,0.34,0.66c0.23,0.54,0.37,1.13,0.5,1.7c0.47,2.15,0.41,4.72-0.43,6.78c-0.84,2.04-3.21,3.08-5.29,4.07    c-0.54,0.26-1.06,0.49-1.57,0.72C158.26,140.51,155.75,137.49,152.21,136.15z"></path>
	</g>
</g>
</svg>
