<?xml version="1.0" encoding="UTF-8"?>
<!-- Generator: Adobe Illustrator 27.3.1, SVG Export Plug-In . SVG Version: 6.00 Build 0)  -->
<svg xmlns="http://www.w3.org/2000/svg" xmlns:xlink="http://www.w3.org/1999/xlink" version="1.1" id="Layer_1" x="0px" y="0px" viewBox="0 0 224 224" style="enable-background:new 0 0 224 224;" xml:space="preserve">
<style type="text/css">
	.st0{fill:url(#SVGID_1_);}
	.st1{fill:#FFFFFF;}
</style>
<g>
	
		<linearGradient id="SVGID_1_" gradientUnits="userSpaceOnUse" x1="112" y1="1.2756" x2="112" y2="225.2756" gradientTransform="matrix(1 0 0 -1 0 225.2756)">
		<stop offset="0" style="stop-color:#1E3063"></stop>
		<stop offset="0.3565" style="stop-color:#1E447E"></stop>
		<stop offset="1" style="stop-color:#1D70B7"></stop>
	</linearGradient>
	<path class="st0" d="M204.2,224H19.8C8.9,224,0,215.1,0,204.2V19.8C0,8.9,8.9,0,19.8,0h184.3c11,0,19.9,8.9,19.9,19.8v184.3   C224,215.1,215.1,224,204.2,224z"></path>
	<g>
		<g>
			<path class="st1" d="M132.2,84.1c-4.8-1.8-10.6-0.2-13.9,3.7c-3.4,4.1-4,10.1-1.2,14.7c2.8,4.6,8.1,6.9,13.3,5.9     c5.9-1.1,10.1-6.5,10.2-12.4C140.6,90.7,137.2,86,132.2,84.1z M130.9,104.2c-3.5,1.2-7.3,0.2-9.7-2.7c-2.3-2.8-2.5-6.8-0.7-9.9     c1.8-3,5.5-4.8,9.1-4c4.1,0.8,6.9,4.4,7,8.5C136.6,99.6,134.3,103,130.9,104.2z"></path>
			<path class="st1" d="M168,54.2c-6.2,0.4-12.6,2.4-18.4,4.6c-12.9,4.9-24.5,12.6-35.3,21.1c-4.1,3.3-8.2,6.7-11.9,10.4     c-0.8,0.8-1.6,1.6-2.4,2.4c-1.8-0.9-3.9-1.5-5.9-1.9c-6.1-1.1-12.2-0.1-17.7,2.5c-4.6,2.1-8.7,5.3-12.4,8.9     c-3.1,3.1-6.3,6.2-9.4,9.3c-0.8,0.8-0.8,2.1,0,2.8c1.4,1.4,2.8,2.8,4.2,4.3c0.8,0.8,2,0.7,2.8,0c0.4-0.4,0.9-0.8,1.4-1.2     c0,0,0.2-0.1,0.2-0.2c0.1,0,0.1-0.1,0.2-0.1c0.3-0.2,0.6-0.4,0.9-0.6c0.7-0.5,1.4-1,2.1-1.4c0.8-0.5,1.6-0.9,2.4-1.4     c0.9-0.4,1.7-0.9,2.4-1.1c0.9-0.3,1.8-0.6,2.7-0.8c1-0.2,1.4-0.3,2.5-0.3c1,0,1.5,0.1,2.6,0.5c0,0,0.1,0,0.2,0.1     c0.1,0,0.2,0.1,0.3,0.2c0.2,0.1,0.3,0.2,0.5,0.3c-0.9,0.9-1.8,1.8-2.7,2.7c-0.1,0.1-0.1,0.1-0.2,0.2c-0.8,0.8-0.8,2.1,0,2.8     c1.6,1.6,3.2,3.2,4.8,4.8c-1.6,1.5-3.1,3.2-3,5.6c0,0.4,0.1,0.8,0.2,1.2c-1.4,0.7-2.7,1.5-3.9,2.5c-4.3,3.3-7.5,7.6-9.4,12.7     c-1.4,4-1.9,8.3-1.8,12.5c0,1.1,0.9,2,2,2c6.8,0.3,13.8-1.2,19.3-5.2c3.4-2.5,6.3-5.7,8.2-9.4c0.1-0.1,0.1-0.2,0.2-0.3     c2.1,0.6,4.1-0.2,5.6-1.7c0.4-0.4,0.8-0.8,1.2-1.2c1.7,1.7,3.5,3.5,5.2,5.2c0.8,0.8,2.1,0.8,2.8,0c0.9-0.9,1.8-1.8,2.7-2.7     c0.1,0.1,0.1,0.2,0.2,0.3c0,0,0.1,0.3,0.1,0.3c0.1,0.2,0.1,0.5,0.2,0.7c0.1,0.5,0.2,0.8,0.2,1.1c0.1,2-0.2,3.3-0.8,5.3     c-0.3,1-0.5,1.4-1,2.4c-0.4,0.9-0.9,1.7-1.4,2.5c-0.4,0.7-0.9,1.4-1.4,2.1c-0.2,0.3-0.4,0.6-0.6,0.9c-0.1,0.1-0.2,0.3-0.3,0.4     c0,0.1-0.1,0.1-0.1,0.2l0,0c-0.5,0.6-0.9,1.2-1.4,1.7c-0.7,0.8-0.8,2,0,2.8c1.4,1.4,2.8,2.8,4.2,4.3c0.8,0.8,2.1,0.8,2.8,0     c2-2,4-4,6-6c2.8-2.8,5.7-5.6,8.1-8.8c5.7-7.5,8.8-17.1,6.4-26.5c-0.3-1.2-0.7-2.5-1.3-3.7c0.6-0.6,1.2-1.2,1.8-1.8     c3.1-3.1,5.9-6.3,8.7-9.6c8.5-10.4,16.5-21.7,21.8-34.1c2.1-4.8,3.8-9.7,5-14.7c0.6-2.5,1.2-5.1,1.4-7.6c0-0.1,0-0.2,0-0.3     C170,55.2,169,54.1,168,54.2z M61.2,113.9c-0.3,0.2-0.5,0.4-0.8,0.6c-0.5-0.5-1-1-1.5-1.5c2.7-2.6,5.3-5.3,8-7.9     c5.2-5.2,11.6-9.4,19-10.5c0.2,0,0.4,0,0.8-0.1c0.3,0,0.6-0.1,0.8-0.1c0.7,0,1.3-0.1,2-0.1c0.6,0,1.1,0,1.7,0.1     c0.3,0,0.6,0.1,0.9,0.1c0,0,0.1,0,0.1,0c0.1,0,0.3,0,0.4,0.1c1.4,0.2,2.8,0.6,4.2,1.1c-2.6,2.6-5.1,5.1-7.7,7.7c0,0,0,0-0.1,0.1     c0,0,0,0,0,0c-1.8,1.8-3.5,3.5-5.3,5.2c-0.3,0.3-0.6,0.6-0.8,0.8C76.1,104.9,67,109.4,61.2,113.9z M88.1,146.2     c0,0.1-0.1,0.1-0.1,0.1c0,0,0,0.1-0.1,0.1c-0.1,0.2-0.3,0.4-0.4,0.5c-0.3,0.4-0.7,0.8-1.1,1.2c-0.8,0.8-1.6,1.6-2.5,2.3     c0,0,0,0-0.1,0.1c0,0,0,0-0.1,0c-0.1,0.1-0.3,0.2-0.4,0.3c-0.2,0.2-0.5,0.3-0.7,0.5c-0.6,0.4-1.1,0.7-1.7,1.1     c-1.3,0.7-2.2,1.1-3.5,1.6c-3,1.1-6.2,1.5-9.3,1.5c0.1-5.6,1.5-10.7,4.8-15.3c0.1-0.1,0.1-0.2,0.2-0.2c0-0.1,0.1-0.2,0.1-0.2     c0.2-0.2,0.3-0.4,0.5-0.6c0.4-0.4,0.8-0.9,1.2-1.3c0.7-0.7,1.5-1.4,2.3-2c0,0,0,0,0,0c0.1-0.1,0.2-0.1,0.3-0.2     c0.2-0.1,0.3-0.3,0.5-0.4c0.4-0.3,0.7-0.5,1.1-0.7c0.6-0.4,1.2-0.7,1.8-1c0.2-0.1,0.4-0.2,0.5-0.3c0.4,0.4,0.8,0.8,1.2,1.2     c1.1,1.1,2.2,2.2,3.3,3.3c0.9,0.9,1.8,1.8,2.7,2.7c0.6,0.6,1.2,1.2,1.8,1.8c0,0,0,0.1-0.1,0.1C89.7,143.8,88.9,145,88.1,146.2z      M128.4,128.1c0.2,0.6,0.4,1.3,0.5,1.9c0.1,0.4,0.2,0.7,0.2,1.1c0,0.2,0.1,0.4,0.1,0.5c0,0.1,0,0.2,0,0.4c0.2,1.9,0.2,3.7,0,5.6     c-0.1,0.7-0.3,1.9-0.5,2.8c-0.3,1.2-0.7,2.3-1.1,3.5c-1,2.6-2.4,5-3.9,7.2c-2.3,3.2-5.1,5.9-7.8,8.6c-1.8,1.7-3.5,3.5-5.3,5.2     c-0.5-0.5-1-1-1.5-1.5c1.1-1.4,2.2-2.9,3.1-4.4c2.2-3.6,4.2-7.9,3.9-12.3c-0.1-2-0.7-3.8-1.8-5.4c1.5-1.5,3.1-3.1,4.6-4.6     c3.1-3.1,6.2-6.2,9.3-9.3C128.2,127.7,128.3,127.9,128.4,128.1z M140.8,107.8c-3.1,3.9-6.3,7.7-9.9,11.3     c-0.9,0.9-1.9,1.9-2.8,2.8c-0.3,0.1-0.5,0.3-0.7,0.5c-2.8,2.8-5.6,5.6-8.4,8.4c-2.8-2.8-5.6-5.7-8.4-8.5     c-0.5-0.5-0.9-0.9-1.4-1.4c-0.7-0.8-2.1-0.8-2.8,0c-0.7,0.8-0.8,2,0,2.8c3.3,3.3,6.6,6.6,9.8,9.9c-1.3,1.3-2.6,2.6-3.9,3.9     c-0.7,0.7-1.4,1.4-2.1,2.1c-0.2,0.2-0.4,0.5-0.5,0.8c-0.8,0.8-1.6,1.5-2.3,2.3c-1.7-1.7-3.4-3.4-5.2-5.2     c-0.4-0.4-0.9-0.6-1.3-0.6c0,0-0.1,0-0.1,0c0,0,0,0-0.1,0c-0.5,0-0.9,0.2-1.3,0.6c-0.7,0.7-1.3,1.3-2,2c-0.6,0.6-1.3,1.5-2.2,1.3     c-0.4-0.1-0.6-0.3-0.9-0.5c-0.1-0.1-0.2-0.2-0.4-0.4l0,0c-0.6-0.6-1.3-1.3-1.9-1.9c-1.8-1.8-3.6-3.6-5.4-5.4l0,0     c-1-1-2.1-2.1-3.1-3.1l0,0c-0.8-1-0.3-1.8,0.5-2.5c0.8-0.8,1.6-1.6,2.4-2.3c0.8-0.8,0.8-2.1,0-2.8c-1.6-1.6-3.2-3.2-4.8-4.8     c2.9-2.9,5.8-5.8,8.7-8.7c0.1-0.1,0.3-0.3,0.4-0.4c2,2,3.9,3.9,5.9,5.9c0.4,0.4,0.7,0.7,1.1,1.1c0.7,0.8,2.1,0.8,2.8,0     c0.7-0.8,0.8-2,0-2.8c-2.3-2.3-4.6-4.6-6.9-7c3.6-3.6,7.3-7.3,10.9-10.9c2.9-2.9,5.9-5.7,9.1-8.3c6.2-5.1,12.7-10,19.6-14.2     c6,6,11.9,12,17.9,18c0.6,0.6,1.1,1.1,1.7,1.7C148.9,97.1,144.9,102.6,140.8,107.8z M165.2,60.7c-0.9,4.5-2.3,8.8-3.9,13.1     c-1.9,4.8-4.2,9.5-6.8,14c-5.7-5.8-11.4-11.5-17.2-17.3c-0.3-0.3-0.6-0.6-0.9-0.9c3.2-1.8,6.5-3.5,9.9-5c4.7-2.1,9.5-3.8,14.5-5     c1.6-0.4,3.1-0.7,4.7-1c0,0,0.1,0,0.1,0c0,0,0,0.1,0,0.1C165.5,59.3,165.4,60,165.2,60.7z"></path>
		</g>
		<path class="st1" d="M94.8,152c-1-0.3-1.9,0.3-2.3,1.1c0,0,0,0-0.1,0.1c-0.1,0.3-0.3,0.6-0.4,0.8c-0.2,0.4-0.5,0.9-0.8,1.3    c-0.2,0.2-0.3,0.5-0.5,0.7c0,0.1-0.1,0.1-0.1,0.2c0,0-0.2,0.2-0.3,0.3c-0.5,0.6-1,1.1-1.5,1.7c-0.3,0.3-0.6,0.5-0.9,0.8    c-0.1,0.1-0.3,0.2-0.4,0.3c0,0-0.3,0.3-0.4,0.3c-1.7,1.2-3.2,1.9-5.1,2.5c-2.8,0.8-5.6,1-8.5,0.7c-1.1-0.1-2,1-2,2    c0,1.2,0.9,1.9,2,2c5.2,0.4,10.6-0.5,15-3.3c2.8-1.8,5.1-4.2,6.8-7.1c0.4-0.7,0.7-1.3,1-2C96.6,153.5,95.8,152.3,94.8,152z"></path>
	</g>
</g>
</svg>
